<svg width="90" height="90" viewBox="0 0 90 90" fill="none" xmlns="http://www.w3.org/2000/svg">
<path opacity="0.2" d="M73.9159 12.6134L8.4101 31.0894C7.85902 31.2449 7.3685 31.5648 7.00411 32.0065C6.63973 32.4482 6.41883 32.9905 6.37094 33.5611C6.32305 34.1317 6.45046 34.7033 6.73613 35.1995C7.0218 35.6958 7.45213 36.093 7.96959 36.3381L38.0672 50.5948C38.6542 50.8729 39.1269 51.3456 39.4049 51.9326L53.6617 82.0301C53.9068 82.5476 54.304 82.9779 54.8002 83.2636C55.2965 83.5493 55.8681 83.6767 56.4386 83.6288C57.0092 83.5809 57.5516 83.36 57.9933 82.9956C58.4349 82.6312 58.7549 82.1407 58.9103 81.5896L77.3863 16.0838C77.522 15.6026 77.527 15.094 77.4008 14.6102C77.2746 14.1265 77.0217 13.6851 76.6682 13.3316C76.3146 12.9781 75.8733 12.7252 75.3895 12.5989C74.9058 12.4727 74.3971 12.4777 73.9159 12.6134Z" fill="url(#paint0_linear_1_98)"/>
<path d="M73.9159 12.6134L8.4101 31.0894C7.85902 31.2449 7.3685 31.5648 7.00411 32.0065C6.63973 32.4482 6.41883 32.9905 6.37094 33.5611C6.32305 34.1317 6.45046 34.7033 6.73613 35.1995C7.0218 35.6958 7.45213 36.093 7.96959 36.3381L38.0672 50.5948C38.6542 50.8729 39.1269 51.3456 39.4049 51.9326L53.6617 82.0301C53.9068 82.5476 54.304 82.9779 54.8002 83.2636C55.2965 83.5493 55.8681 83.6767 56.4386 83.6288C57.0092 83.5809 57.5516 83.36 57.9933 82.9956C58.4349 82.6312 58.7549 82.1407 58.9103 81.5896L77.3863 16.0838C77.522 15.6026 77.527 15.094 77.4008 14.6102C77.2746 14.1265 77.0217 13.6851 76.6682 13.3316C76.3146 12.9781 75.8733 12.7252 75.3895 12.5989C74.9058 12.4727 74.3971 12.4777 73.9159 12.6134Z" stroke="url(#paint1_linear_1_98)" stroke-linecap="round" stroke-linejoin="round"/>
<path d="M38.9744 51.0249L54.8843 35.115" stroke="url(#paint2_linear_1_98)" stroke-linecap="round" stroke-linejoin="round"/>
<defs>
<linearGradient id="paint0_linear_1_98" x1="6.36108" y1="48.0732" x2="77.4919" y2="48.0732" gradientUnits="userSpaceOnUse">
<stop stop-color="#F85556"/>
<stop offset="1" stop-color="#FF8B2C"/>
</linearGradient>
<linearGradient id="paint1_linear_1_98" x1="6.36108" y1="48.0732" x2="77.4919" y2="48.0732" gradientUnits="userSpaceOnUse">
<stop stop-color="#F85556"/>
<stop offset="1" stop-color="#FF8B2C"/>
</linearGradient>
<linearGradient id="paint2_linear_1_98" x1="38.9744" y1="43.0699" x2="54.8843" y2="43.0699" gradientUnits="userSpaceOnUse">
<stop stop-color="#F85556"/>
<stop offset="1" stop-color="#FF8B2C"/>
</linearGradient>
</defs>
</svg>
